<svg width="970" height="94" viewBox="0 0 970 94" fill="none" xmlns="http://www.w3.org/2000/svg">
<mask id="path-1-outside-1_163_3" maskUnits="userSpaceOnUse" x="0.695312" y="0.0839844" width="969" height="93" fill="black">
<rect fill="white" x="0.695312" y="0.0839844" width="969" height="93"/>
<path d="M65.4493 68.394V2.09998H78.1493V91H67.7353L14.3953 24.706V91H1.69531V2.09998H12.1093L65.4493 68.394ZM117.459 51.249V79.951H169.275V91H104.759V2.09998H167.497V13.149H117.459V40.454H162.036V51.249H117.459ZM225.677 45.026L259.332 91H244.727L218.057 54.297L191.768 91H177.163L210.564 45.407L179.195 2.09998H193.673L218.565 36.263L243.203 2.09998H257.046L225.677 45.026ZM300.68 91H288.107V13.149H257.627V2.09998H331.16V13.149H300.68V91ZM379.099 2.09998H413.77C425.284 2.09998 434.344 4.85165 440.948 10.355C447.552 15.8583 450.854 23.436 450.854 33.088C450.854 42.74 447.552 50.3177 440.948 55.821C434.344 61.3243 425.284 64.076 413.77 64.076H391.799V91H379.099V2.09998ZM391.799 53.027H413.389C421.432 53.027 427.57 51.3336 431.804 47.947C436.037 44.4756 438.154 39.5226 438.154 33.088C438.154 26.6533 436.037 21.7427 431.804 18.356C427.57 14.8846 421.432 13.149 413.389 13.149H391.799V53.027ZM521.709 61.155L542.791 91H528.948L509.771 63.695C507.4 63.8643 505.537 63.949 504.183 63.949H482.212V91H469.512V2.09998H504.183C515.697 2.09998 524.757 4.85165 531.361 10.355C537.965 15.8583 541.267 23.436 541.267 33.088C541.267 39.946 539.573 45.788 536.187 50.614C532.8 55.44 527.974 58.9537 521.709 61.155ZM482.212 53.154H503.802C511.845 53.154 517.983 51.4183 522.217 47.947C526.45 44.4756 528.567 39.5226 528.567 33.088C528.567 26.6533 526.45 21.7427 522.217 18.356C517.983 14.8846 511.845 13.149 503.802 13.149H482.212V53.154ZM601.917 92.016C588.286 92.016 576.983 87.698 568.008 79.062C559.034 70.426 554.546 59.5886 554.546 46.55C554.546 33.5113 559.034 22.674 568.008 14.038C576.983 5.40198 588.286 1.08398 601.917 1.08398C615.464 1.08398 626.682 5.40198 635.572 14.038C644.547 22.674 649.034 33.5113 649.034 46.55C649.034 59.5886 644.547 70.426 635.572 79.062C626.682 87.698 615.464 92.016 601.917 92.016ZM601.917 80.713C611.739 80.713 619.909 77.4956 626.428 71.061C633.032 64.5416 636.334 56.3713 636.334 46.55C636.334 36.7286 633.032 28.6006 626.428 22.166C619.909 15.6466 611.739 12.387 601.917 12.387C591.927 12.387 583.629 15.6466 577.025 22.166C570.506 28.6006 567.246 36.7286 567.246 46.55C567.246 56.3713 570.506 64.5416 577.025 71.061C583.629 77.4956 591.927 80.713 601.917 80.713ZM678.015 92.016C672.681 92.016 667.728 90.9153 663.156 88.714C658.584 86.428 654.901 83.253 652.107 79.189L659.473 70.553C664.384 77.5803 670.564 81.094 678.015 81.094C688.175 81.094 693.255 75.0827 693.255 63.06V13.149H661.124V2.09998H705.828V62.425C705.828 82.1523 696.557 92.016 678.015 92.016ZM744.397 51.249V79.951H796.213V91H731.697V2.09998H794.435V13.149H744.397V40.454H788.974V51.249H744.397ZM856.404 92.016C842.942 92.016 831.724 87.7403 822.749 79.189C813.859 70.553 809.414 59.6733 809.414 46.55C809.414 33.4266 813.859 22.5893 822.749 14.038C831.724 5.40198 842.985 1.08398 856.531 1.08398C870.84 1.08398 882.101 5.69832 890.313 14.927L882.058 22.928C875.37 15.9006 867.03 12.387 857.039 12.387C846.964 12.387 838.624 15.6466 832.02 22.166C825.416 28.6006 822.114 36.7286 822.114 46.55C822.114 56.3713 825.416 64.5416 832.02 71.061C838.624 77.4956 846.964 80.713 857.039 80.713C866.945 80.713 875.285 77.157 882.058 70.045L890.313 78.046C882.016 87.3593 870.713 92.016 856.404 92.016ZM937.664 91H925.091V13.149H894.611V2.09998H968.144V13.149H937.664V91Z"/>
</mask>
<path d="M65.4493 68.394V2.09998H78.1493V91H67.7353L14.3953 24.706V91H1.69531V2.09998H12.1093L65.4493 68.394ZM117.459 51.249V79.951H169.275V91H104.759V2.09998H167.497V13.149H117.459V40.454H162.036V51.249H117.459ZM225.677 45.026L259.332 91H244.727L218.057 54.297L191.768 91H177.163L210.564 45.407L179.195 2.09998H193.673L218.565 36.263L243.203 2.09998H257.046L225.677 45.026ZM300.68 91H288.107V13.149H257.627V2.09998H331.16V13.149H300.68V91ZM379.099 2.09998H413.77C425.284 2.09998 434.344 4.85165 440.948 10.355C447.552 15.8583 450.854 23.436 450.854 33.088C450.854 42.74 447.552 50.3177 440.948 55.821C434.344 61.3243 425.284 64.076 413.77 64.076H391.799V91H379.099V2.09998ZM391.799 53.027H413.389C421.432 53.027 427.57 51.3336 431.804 47.947C436.037 44.4756 438.154 39.5226 438.154 33.088C438.154 26.6533 436.037 21.7427 431.804 18.356C427.57 14.8846 421.432 13.149 413.389 13.149H391.799V53.027ZM521.709 61.155L542.791 91H528.948L509.771 63.695C507.4 63.8643 505.537 63.949 504.183 63.949H482.212V91H469.512V2.09998H504.183C515.697 2.09998 524.757 4.85165 531.361 10.355C537.965 15.8583 541.267 23.436 541.267 33.088C541.267 39.946 539.573 45.788 536.187 50.614C532.8 55.44 527.974 58.9537 521.709 61.155ZM482.212 53.154H503.802C511.845 53.154 517.983 51.4183 522.217 47.947C526.45 44.4756 528.567 39.5226 528.567 33.088C528.567 26.6533 526.45 21.7427 522.217 18.356C517.983 14.8846 511.845 13.149 503.802 13.149H482.212V53.154ZM601.917 92.016C588.286 92.016 576.983 87.698 568.008 79.062C559.034 70.426 554.546 59.5886 554.546 46.55C554.546 33.5113 559.034 22.674 568.008 14.038C576.983 5.40198 588.286 1.08398 601.917 1.08398C615.464 1.08398 626.682 5.40198 635.572 14.038C644.547 22.674 649.034 33.5113 649.034 46.55C649.034 59.5886 644.547 70.426 635.572 79.062C626.682 87.698 615.464 92.016 601.917 92.016ZM601.917 80.713C611.739 80.713 619.909 77.4956 626.428 71.061C633.032 64.5416 636.334 56.3713 636.334 46.55C636.334 36.7286 633.032 28.6006 626.428 22.166C619.909 15.6466 611.739 12.387 601.917 12.387C591.927 12.387 583.629 15.6466 577.025 22.166C570.506 28.6006 567.246 36.7286 567.246 46.55C567.246 56.3713 570.506 64.5416 577.025 71.061C583.629 77.4956 591.927 80.713 601.917 80.713ZM678.015 92.016C672.681 92.016 667.728 90.9153 663.156 88.714C658.584 86.428 654.901 83.253 652.107 79.189L659.473 70.553C664.384 77.5803 670.564 81.094 678.015 81.094C688.175 81.094 693.255 75.0827 693.255 63.06V13.149H661.124V2.09998H705.828V62.425C705.828 82.1523 696.557 92.016 678.015 92.016ZM744.397 51.249V79.951H796.213V91H731.697V2.09998H794.435V13.149H744.397V40.454H788.974V51.249H744.397ZM856.404 92.016C842.942 92.016 831.724 87.7403 822.749 79.189C813.859 70.553 809.414 59.6733 809.414 46.55C809.414 33.4266 813.859 22.5893 822.749 14.038C831.724 5.40198 842.985 1.08398 856.531 1.08398C870.84 1.08398 882.101 5.69832 890.313 14.927L882.058 22.928C875.37 15.9006 867.03 12.387 857.039 12.387C846.964 12.387 838.624 15.6466 832.02 22.166C825.416 28.6006 822.114 36.7286 822.114 46.55C822.114 56.3713 825.416 64.5416 832.02 71.061C838.624 77.4956 846.964 80.713 857.039 80.713C866.945 80.713 875.285 77.157 882.058 70.045L890.313 78.046C882.016 87.3593 870.713 92.016 856.404 92.016ZM937.664 91H925.091V13.149H894.611V2.09998H968.144V13.149H937.664V91Z" stroke="white" stroke-width="2" mask="url(#path-1-outside-1_163_3)"/>
</svg>
