<svg width="100" height="100" viewBox="0 0 100 100" fill="none" xmlns="http://www.w3.org/2000/svg">
    <path d="M0 0H100V100H0V0Z" fill="#000000"/>
    <path d="M14.3904 70C13.5644 70 13.1514 69.4087 13.1514 68.226C13.1514 66.7366 13.6079 64.5684 14.5208 61.7212C15.4338 58.8739 17.0858 55.3697 19.4769 51.2083C15.0425 50.4637 12.8253 49.4343 12.8253 48.1202C12.8253 47.2441 13.4992 46.5214 14.8469 45.9519C16.0207 45.4701 17.1728 45.2292 18.3031 45.2292C18.8682 45.2292 19.1508 45.3825 19.1508 45.6891C19.1508 45.9957 18.5205 46.2585 17.2597 46.4776C15.912 46.7404 15.2382 47.1346 15.2382 47.6603C15.2382 48.4049 16.8902 49.1496 20.1942 49.8942C21.1941 48.1421 22.2157 46.4557 23.2591 44.8349C24.3025 43.2142 25.2807 41.7249 26.1936 40.367C26.6284 39.7537 27.0414 39.1843 27.4326 38.6587C27.8674 38.0892 28.3673 37.4541 28.9325 36.7532C29.3238 36.2714 29.9976 35.9209 30.954 35.7019C31.954 35.4829 32.9321 35.3734 33.8885 35.3734C34.6276 35.3734 34.9971 35.5267 34.9971 35.8333C34.9971 35.9209 34.9319 36.0743 34.8015 36.2933C32.9321 38.3958 31.0627 40.6298 29.1933 42.9952C27.3674 45.3168 25.6285 47.7698 23.9765 50.3542C25.1503 50.4856 26.3023 50.5513 27.4326 50.5513C29.2151 50.5513 31.2149 50.3542 33.4321 49.9599C35.6492 49.5657 37.8447 48.9744 40.0184 48.1859C42.1921 47.3536 44.105 46.3243 45.757 45.0978C47.4525 43.8713 48.6263 42.4477 49.2784 40.8269C49.5827 40.1699 49.7349 39.4909 49.7349 38.7901C49.7349 37.6074 49.3001 36.6437 48.4306 35.899C47.6046 35.1544 46.5178 34.5849 45.1701 34.1907C43.8224 33.7527 42.366 33.446 40.8009 33.2708C39.2793 33.0956 37.7795 32.9861 36.3014 32.9423C34.8667 32.8985 33.6277 32.8766 32.5843 32.8766C28.15 32.8766 23.7591 33.2051 19.4117 33.8622C15.0643 34.4754 10.7603 35.4172 6.49986 36.6875C6.32596 36.7313 6.1738 36.7751 6.04338 36.8189C5.86948 36.8189 5.71732 36.8189 5.5869 36.8189C5.23911 36.8189 5.06521 36.6875 5.06521 36.4247C5.06521 36.3371 5.06521 36.2276 5.06521 36.0962C5.02174 35.9647 5 35.8114 5 35.6362C5 35.3296 5.04347 35.023 5.13042 34.7163C5.21737 34.3659 5.413 34.1031 5.71732 33.9279C6.10859 33.6213 6.47812 33.3803 6.82591 33.2051C7.17371 32.9861 7.54324 32.8328 7.9345 32.7452C13.8035 31.1683 20.6942 30.3798 28.6064 30.3798C31.4323 30.3798 34.1929 30.4893 36.8883 30.7083C39.5837 30.9274 42.2573 31.2778 44.9092 31.7596C47.4742 32.2415 49.4305 32.8985 50.7782 33.7308C52.1694 34.563 53.1258 35.461 53.6475 36.4247C54.2127 37.3884 54.4953 38.352 54.4953 39.3157C54.4953 40.0166 54.3866 40.6736 54.1692 41.2869C53.9953 41.8563 53.7997 42.36 53.5823 42.7981C52.7563 44.2874 51.5173 45.6015 49.8653 46.7404C48.2133 47.8355 46.17 48.821 43.7354 49.6971C41.6052 50.4418 39.4098 51.055 37.1491 51.5369C34.8885 52.0187 32.6278 52.2596 30.3671 52.2596C29.1933 52.2596 27.9543 52.2377 26.6501 52.1939C25.3894 52.1063 24.1286 52.0187 22.8679 51.9311C20.2159 56.0924 18.2596 59.4872 16.9989 62.1154C15.7381 64.7436 15.1077 66.7366 15.1077 68.0946C15.1077 68.3136 15.1512 68.4888 15.2382 68.6202C15.2816 68.7078 15.3034 68.7954 15.3034 68.883C15.3034 68.9706 15.3034 69.0363 15.3034 69.0801C15.3034 69.6934 14.999 70 14.3904 70Z" fill="white"/>
    <path d="M61.1336 67.9631C60.1337 67.8317 59.2859 67.547 58.5903 67.109C57.8947 66.6709 57.4383 65.9482 57.2209 64.9407C54.4386 65.2473 51.6997 65.5759 49.0043 65.9263C46.3089 66.2767 43.4613 66.7585 40.4616 67.3718C40.2877 67.4156 40.1356 67.4375 40.0051 67.4375C39.8313 67.4813 39.6791 67.5032 39.5487 67.5032C39.2009 67.5032 39.027 67.3061 39.027 66.9119C39.027 66.5176 39.5704 66.1015 40.6573 65.6635C41.7006 65.2692 43.0483 64.8969 44.7004 64.5465C46.3089 64.1522 47.9827 63.8018 49.7216 63.4952C51.4606 63.1886 53.0257 62.9258 54.4168 62.7067C55.808 62.4877 56.7644 62.3344 57.2861 62.2468C57.5904 60.5823 58.1556 58.7206 58.9816 56.6619C59.8511 54.5593 60.8945 52.3691 62.1117 50.0913C63.329 47.8136 64.6332 45.5796 66.0244 43.3894C67.4156 41.1993 68.785 39.1624 70.1327 37.2788C71.5239 35.3953 72.7629 33.7965 73.8497 32.4824H73.3933C72.9151 32.4824 71.9804 32.5043 70.5892 32.5481C69.198 32.5481 67.6329 32.6138 65.894 32.7452C64.155 32.8328 62.4378 32.9861 60.7423 33.2051C59.0903 33.4241 57.7209 33.7089 56.634 34.0593C55.5471 34.4097 55.0037 34.8697 55.0037 35.4391C55.0037 36.0962 55.3732 36.6875 56.1123 37.2131C56.8514 37.7388 58.2208 38.3082 60.2206 38.9215C60.6988 39.0529 60.9379 39.2062 60.9379 39.3814C60.9379 39.7318 60.5032 39.9071 59.6337 39.9071C59.5468 39.9071 59.4381 39.9071 59.3077 39.9071C59.1772 39.9071 59.0468 39.8851 58.9164 39.8413C58.5251 39.7537 57.9165 39.6004 57.0905 39.3814C56.3079 39.1624 55.4819 38.8777 54.6125 38.5272C53.743 38.133 53.0039 37.6512 52.3953 37.0817C51.7866 36.4685 51.4823 35.7676 51.4823 34.9792C51.4388 33.9279 52.0692 33.0737 53.3734 32.4167C54.6777 31.7596 56.3514 31.2559 58.3947 30.9055C60.4815 30.555 62.6334 30.3141 64.8506 30.1827C67.1113 30.0513 69.1763 29.9856 71.0457 29.9856C72.176 29.9856 73.1759 30.0075 74.0454 30.0513C74.9149 30.0513 75.567 30.0732 76.0017 30.117C76.5669 29.5913 77.219 29.2847 77.9581 29.1971C78.7406 29.0657 79.4796 29 80.1752 29C80.4361 29 80.7621 29.0438 81.1534 29.1314C81.5881 29.1752 81.8055 29.3942 81.8055 29.7885L81.4795 30.4455C81.8272 30.4455 82.4794 30.4674 83.4358 30.5112C84.3922 30.555 85.4573 30.6426 86.6311 30.774C87.8484 30.8616 89.0005 30.9931 90.0873 31.1683C91.2177 31.2997 92.1524 31.4968 92.8914 31.7596C93.6305 31.9786 94 32.2634 94 32.6138C94 32.9642 93.8478 33.227 93.5435 33.4022C93.2827 33.5337 93.0001 33.5775 92.6958 33.5337C87.7397 32.8766 83.3054 32.5481 79.3927 32.5481C77.6537 34.344 75.8061 36.4247 73.8497 38.7901C71.9369 41.1116 70.0675 43.5865 68.2416 46.2147C66.4591 48.8429 64.8723 51.4931 63.4812 54.1651C62.1335 56.8371 61.1336 59.3996 60.4815 61.8526C61.6118 61.7212 62.7421 61.6116 63.8724 61.524C65.0462 61.4364 66.1983 61.3926 67.3286 61.3926H69.4154C70.4588 61.3926 71.5674 61.4583 72.7412 61.5897C73.9584 61.6774 75.0018 61.9402 75.8713 62.3782C76.7408 62.7724 77.1755 63.4076 77.1755 64.2837C77.1755 64.5465 77.0886 64.875 76.9147 65.2692C76.7408 65.6197 76.4799 65.7949 76.1321 65.7949L75.6757 65.7292C74.1106 65.2473 72.5021 64.9188 70.85 64.7436C69.2415 64.5684 67.6112 64.4808 65.9592 64.4808H65.3723C65.7636 64.656 65.9592 64.9626 65.9592 65.4006C65.9592 65.8387 65.6984 66.2767 65.1767 66.7147C64.6985 67.1528 64.0898 67.4813 63.3508 67.7003C62.6117 67.9631 61.8726 68.0508 61.1336 67.9631ZM61.4596 66.4519C62.0683 66.4957 62.6986 66.4081 63.3508 66.1891C64.0029 65.9701 64.5898 65.4226 65.1115 64.5465C64.4159 64.5903 63.5246 64.6122 62.4378 64.6122C61.3509 64.6122 60.438 64.656 59.6989 64.7436C59.7859 65.0502 59.9598 65.3787 60.2206 65.7292C60.4815 66.1234 60.8945 66.3643 61.4596 66.4519Z" fill="white"/>
</svg>
